# xmcd
#
# Track frame offsets: 
#        150
#        24430
#        41302
#        56110
#        78874
#        94310
#        105016
#        117821
#        123536
#        146326
#        161660
#        172717
#
# Disc length: 2471 seconds
#
# Revision: 0
# Processed by: cddbd v1.5.1PL0 Copyright (c) Steve Scherf et al.
# Submitted via: ExactAudioCopy v0.95a3
#
DISCID=8709a50c
DTITLE=The Court and Spark - Witch Season
DYEAR=2004
DGENRE=Country
TTITLE0=Suffolk Down Upon the Night
TTITLE1=Out On The Water
TTITLE2=Denver Annie
TTITLE3=Steeplechasing
TTITLE4=Sundowner, You
TTITLE5=St. John The Evangelist
TTITLE6=Witch Season
TTITLE7=The Wandering Tattler
TTITLE8=With The Horseshoe King
TTITLE9=Hallelujah I
TTITLE10=Swimming Endlessly
TTITLE11=Titov Sang The Blues
EXTD=
EXTT0=
EXTT1=
EXTT2=
EXTT3=
EXTT4=
EXTT5=
EXTT6=
EXTT7=
EXTT8=
EXTT9=
EXTT10=
EXTT11=
PLAYORDER=
